<?xml version="1.0" encoding="UTF-8" standalone="no"?>
<!-- Created with Inkscape (http://www.inkscape.org/) -->

<svg
   xmlns:dc="http://purl.org/dc/elements/1.1/"
   xmlns:cc="http://creativecommons.org/ns#"
   xmlns:rdf="http://www.w3.org/1999/02/22-rdf-syntax-ns#"
   xmlns:svg="http://www.w3.org/2000/svg"
   xmlns="http://www.w3.org/2000/svg"
   xmlns:sodipodi="http://sodipodi.sourceforge.net/DTD/sodipodi-0.dtd"
   xmlns:inkscape="http://www.inkscape.org/namespaces/inkscape"
   width="32"
   height="32"
   viewBox="0 0 8.4666665 8.4666669"
   version="1.1"
   id="svg8"
   inkscape:version="0.92.2 (5c3e80d, 2017-08-06)"
   sodipodi:docname="PLAY.svg">
  <defs
     id="defs2" />
  <sodipodi:namedview
     id="base"
     pagecolor="#ffffff"
     bordercolor="#666666"
     borderopacity="1.0"
     inkscape:pageopacity="0.0"
     inkscape:pageshadow="2"
     inkscape:zoom="16"
     inkscape:cx="6.460145"
     inkscape:cy="16.420792"
     inkscape:document-units="mm"
     inkscape:current-layer="layer1"
     showgrid="true"
     units="px"
     inkscape:pagecheckerboard="true"
     inkscape:window-width="1366"
     inkscape:window-height="660"
     inkscape:window-x="0"
     inkscape:window-y="23"
     inkscape:window-maximized="1"
     showguides="true">
    <inkscape:grid
       type="xygrid"
       id="grid10"
       spacingx="0.52916667"
       spacingy="0.52916667"
       empspacing="4"
       snapvisiblegridlinesonly="true" />
  </sodipodi:namedview>
  <metadata
     id="metadata5">
    <rdf:RDF>
      <cc:Work
         rdf:about="">
        <dc:format>image/svg+xml</dc:format>
        <dc:type
           rdf:resource="http://purl.org/dc/dcmitype/StillImage" />
        <dc:title></dc:title>
      </cc:Work>
    </rdf:RDF>
  </metadata>
  <g
     inkscape:label="Layer 1"
     inkscape:groupmode="layer"
     id="layer1"
     transform="translate(0,-288.53332)">
    <path
       style="fill:none;fill-opacity:1;stroke:#ffffff;stroke-width:1px;stroke-linecap:round;stroke-linejoin:round;stroke-miterlimit:30;stroke-dasharray:none;stroke-opacity:1"
       d="m 1.7199355,289.06249 a 0.79374999,0.79374999 0 0 0 -0.011886,5.2e-4 0.79374999,0.79374999 0 0 0 -0.6826456,0.39636 0.79374999,0.79374999 0 0 0 -0.0992188,0.49454 v 5.62239 a 0.79374999,0.79374999 0 0 0 0.0992188,0.49765 0.79374999,0.79374999 0 0 0 0.6361368,0.39481 0.79374999,0.79374999 0 0 0 0.0031,0 0.79374999,0.79374999 0 0 0 0.027389,0.001 0.79374999,0.79374999 0 0 0 0.027905,10e-4 0.79374999,0.79374999 0 0 0 0.019637,-10e-4 0.79374999,0.79374999 0 0 0 0.029972,-0.002 0.79374999,0.79374999 0 0 0 0.062528,-0.007 0.79374999,0.79374999 0 0 0 0.00155,0 0.79374999,0.79374999 0 0 0 0.00103,-5.1e-4 0.79374999,0.79374999 0 0 0 0.3410644,-0.13436 l 4.9748902,-2.8727 a 0.79374999,0.79374999 0 0 0 0.011885,-0.008 0.79374999,0.79374999 0 0 0 0.043408,-0.0279 0.79374999,0.79374999 0 0 0 0.024288,-0.0176 0.79374999,0.79374999 0 0 0 0.038757,-0.031 0.79374999,0.79374999 0 0 0 0.021187,-0.0186 0.79374999,0.79374999 0 0 0 0.035657,-0.0346 0.79374999,0.79374999 0 0 0 0.021704,-0.0238 0.79374999,0.79374999 0 0 0 0.028422,-0.0341 0.79374999,0.79374999 0 0 0 0.023255,-0.0305 0.79374999,0.79374999 0 0 0 0.028422,-0.0424 0.79374999,0.79374999 0 0 0 0.00413,-0.006 0.79374999,0.79374999 0 0 0 0.00155,-0.003 0.79374999,0.79374999 0 0 0 0.00827,-0.0129 0.79374999,0.79374999 0 0 0 0.019637,-0.0388 0.79374999,0.79374999 0 0 0 0.010335,-0.0202 0.79374999,0.79374999 0 0 0 0.018087,-0.0419 0.79374999,0.79374999 0 0 0 0.013953,-0.0362 0.79374999,0.79374999 0 0 0 0.00982,-0.032 0.79374999,0.79374999 0 0 0 0.012402,-0.045 0.79374999,0.79374999 0 0 0 0.00672,-0.0326 0.79374999,0.79374999 0 0 0 0.00775,-0.0434 0.79374999,0.79374999 0 0 0 0.00362,-0.0382 0.79374999,0.79374999 0 0 0 0.0031,-0.0419 0.79374999,0.79374999 0 0 0 -5.169e-4,-0.0408 0.79374999,0.79374999 0 0 0 -5.168e-4,-0.0357 0.79374999,0.79374999 0 0 0 -0.00413,-0.0413 0.79374999,0.79374999 0 0 0 -0.00517,-0.0398 0.79374999,0.79374999 0 0 0 -0.00723,-0.0351 0.79374999,0.79374999 0 0 0 -0.010335,-0.0444 0.79374999,0.79374999 0 0 0 -0.00878,-0.0279 0.79374999,0.79374999 0 0 0 -0.015503,-0.0455 0.79374999,0.79374999 0 0 0 -0.012402,-0.03 0.79374999,0.79374999 0 0 0 -0.023255,-0.0501 0.79374999,0.79374999 0 0 0 -0.01757,-0.0331 0.79374999,0.79374999 0 0 0 -0.014469,-0.0217 0.79374999,0.79374999 0 0 0 -0.01757,-0.0274 0.79374999,0.79374999 0 0 0 -0.027388,-0.0377 0.79374999,0.79374999 0 0 0 -0.01757,-0.0217 0.79374999,0.79374999 0 0 0 -0.03514,-0.0403 0.79374999,0.79374999 0 0 0 -0.019637,-0.0196 0.79374999,0.79374999 0 0 0 -0.036174,-0.0336 0.79374999,0.79374999 0 0 0 -0.024805,-0.0207 0.79374999,0.79374999 0 0 0 -0.031522,-0.0238 0.79374999,0.79374999 0 0 0 -0.038757,-0.0269 0.79374999,0.79374999 0 0 0 -0.022737,-0.0139 0.79374999,0.79374999 0 0 0 -0.00517,-0.003 L 2.1715875,289.2046 a 0.79374999,0.79374999 0 0 0 -0.3513998,-0.13488 0.79374999,0.79374999 0 0 0 -0.020154,-0.003 0.79374999,0.79374999 0 0 0 -0.055811,-0.004 0.79374999,0.79374999 0 0 0 -0.012402,-0.001 0.79374999,0.79374999 0 0 0 -0.00672,0 0.79374999,0.79374999 0 0 0 -0.00517,0 z"
       id="path4763"
       inkscape:connector-curvature="0" />
  </g>
</svg>
