<svg xmlns="http://www.w3.org/2000/svg" width="32" height="32" viewBox="0 0 8.46667 8.46667">
  <path d="M1.71994.52917a.79375.79375 0 0 0-.01189.00052.79375.79375 0 0 0-.68265.39636.79375.79375 0 0 0-.09921.49454v5.62239a.79375.79375 0 0 0 .09921.49765.79375.79375 0 0 0 .63614.39481.79375.79375 0 0 0 .0031 0 .79375.79375 0 0 0 .02739.001.79375.79375 0 0 0 .0279.001.79375.79375 0 0 0 .01964-.001.79375.79375 0 0 0 .02997-.002.79375.79375 0 0 0 .06253-.007.79375.79375 0 0 0 .00155 0 .79375.79375 0 0 0 .00103-.00051.79375.79375 0 0 0 .34107-.13436l4.97489-2.8727a.79375.79375 0 0 0 .01188-.008.79375.79375 0 0 0 .0434-.0279.79375.79375 0 0 0 .0243-.0176.79375.79375 0 0 0 .03875-.031.79375.79375 0 0 0 .0212-.0186.79375.79375 0 0 0 .03565-.0346.79375.79375 0 0 0 .0217-.0238.79375.79375 0 0 0 .02842-.0341.79375.79375 0 0 0 .02326-.0305.79375.79375 0 0 0 .02842-.0424.79375.79375 0 0 0 .00413-.006.79375.79375 0 0 0 .00155-.003.79375.79375 0 0 0 .00827-.0129.79375.79375 0 0 0 .01964-.0388.79375.79375 0 0 0 .01033-.0202.79375.79375 0 0 0 .01809-.0419.79375.79375 0 0 0 .01395-.0362.79375.79375 0 0 0 .00982-.032.79375.79375 0 0 0 .0124-.045.79375.79375 0 0 0 .00673-.0326.79375.79375 0 0 0 .00775-.0434.79375.79375 0 0 0 .00362-.0382.79375.79375 0 0 0 .0031-.0419.79375.79375 0 0 0-.00052-.0408.79375.79375 0 0 0-.00052-.0357.79375.79375 0 0 0-.00413-.0413.79375.79375 0 0 0-.00517-.0398.79375.79375 0 0 0-.00723-.0351.79375.79375 0 0 0-.01033-.0444.79375.79375 0 0 0-.00878-.0279.79375.79375 0 0 0-.0155-.0455.79375.79375 0 0 0-.0124-.03.79375.79375 0 0 0-.02326-.0501.79375.79375 0 0 0-.01757-.0331.79375.79375 0 0 0-.01447-.0217.79375.79375 0 0 0-.01757-.0274.79375.79375 0 0 0-.02739-.0377.79375.79375 0 0 0-.01757-.0217.79375.79375 0 0 0-.03514-.0403.79375.79375 0 0 0-.01964-.0196.79375.79375 0 0 0-.03617-.0336.79375.79375 0 0 0-.0248-.0207.79375.79375 0 0 0-.03153-.0238.79375.79375 0 0 0-.03876-.0269.79375.79375 0 0 0-.02273-.0139.79375.79375 0 0 0-.00517-.003L2.17159.67128a.79375.79375 0 0 0-.3514-.13488.79375.79375 0 0 0-.02016-.003.79375.79375 0 0 0-.0558-.004.79375.79375 0 0 0-.0124-.001.79375.79375 0 0 0-.00673 0 .79375.79375 0 0 0-.00517 0z" fill="none" stroke="#fff" stroke-width="1" stroke-linecap="round" stroke-linejoin="round" stroke-miterlimit="30"/>
</svg>
