<svg xmlns="http://www.w3.org/2000/svg" viewBox="0 0 8.46667 8.46667" height="32" width="32">
  <g fill="none" stroke="#fff" stroke-linecap="round">
    <path d="M137.55308 109.48l-28.02686 28.0367 102.76514 102.8005a19.81798 19.82483 0 0 0 28.02687 0 19.81798 19.82483 0 0 0-.00002-28.0364zm-106.3411 19.0745a18.76499 18.74046 0 0 0 0 26.503 18.76499 18.74046 0 0 0 26.53768-.0002l97.30494-97.1775a18.76499 18.74046 0 0 0-.00003-26.5033 18.76499 18.74046 0 0 0-26.53769.0002z" stroke-linejoin="round"/>
    <path d="M51.40476 73.7815l25.40001-25.4"/>
  </g>
  <rect width="7.40833" height="2.64583" x=".52917" y=".52916" rx=".79375" ry=".79375" fill="none" stroke="#fff" stroke-linecap="round" stroke-linejoin="round"/>
  <rect ry=".79375" rx=".79375" y="5.29167" x=".52917" height="2.64583" width="7.40833" fill="none" stroke="#fff" stroke-linecap="round" stroke-linejoin="round"/>
  <rect width="2.64583" height="2.64583" x="5.29167" y=".52916" rx=".79375" ry=".79375" fill="none" stroke="#fff" stroke-linecap="round" stroke-linejoin="round" stroke-opacity=".97685"/>
  <rect width="2.64583" height="2.64583" x=".52917" y="5.29167" rx=".79375" ry=".79375" fill="none" stroke="#fff" stroke-linecap="round" stroke-linejoin="round"/>
</svg>
