<?xml version="1.0" encoding="UTF-8" standalone="no"?>
<svg
   xmlns:dc="http://purl.org/dc/elements/1.1/"
   xmlns:cc="http://creativecommons.org/ns#"
   xmlns:rdf="http://www.w3.org/1999/02/22-rdf-syntax-ns#"
   xmlns:svg="http://www.w3.org/2000/svg"
   xmlns="http://www.w3.org/2000/svg"
   xmlns:sodipodi="http://sodipodi.sourceforge.net/DTD/sodipodi-0.dtd"
   xmlns:inkscape="http://www.inkscape.org/namespaces/inkscape"
   viewBox="0 0 8.46667 8.46667"
   height="32"
   width="32"
   version="1.1"
   id="svg16"
   sodipodi:docname="settings.svg"
   inkscape:version="0.92.4 (5da689c313, 2019-01-14)">
  <metadata
     id="metadata22">
    <rdf:RDF>
      <cc:Work
         rdf:about="">
        <dc:format>image/svg+xml</dc:format>
        <dc:type
           rdf:resource="http://purl.org/dc/dcmitype/StillImage" />
        <dc:title></dc:title>
      </cc:Work>
    </rdf:RDF>
  </metadata>
  <defs
     id="defs20" />
  <sodipodi:namedview
     pagecolor="#ffffff"
     bordercolor="#666666"
     borderopacity="1"
     objecttolerance="10"
     gridtolerance="10"
     guidetolerance="10"
     inkscape:pageopacity="0"
     inkscape:pageshadow="2"
     inkscape:window-width="752"
     inkscape:window-height="480"
     id="namedview18"
     showgrid="true"
     inkscape:pagecheckerboard="true"
     inkscape:zoom="7.375"
     inkscape:cx="16"
     inkscape:cy="16"
     inkscape:window-x="0"
     inkscape:window-y="0"
     inkscape:window-maximized="0"
     inkscape:current-layer="svg16">
    <inkscape:grid
       type="xygrid"
       id="grid829"
       spacingx="0.52916688"
       spacingy="0.52916688" />
  </sodipodi:namedview>
  <g
     fill="none"
     stroke="#fff"
     stroke-linecap="round"
     id="g6">
    <path
       d="M137.55308 109.48l-28.02686 28.0367 102.76514 102.8005a19.81798 19.82483 0 0 0 28.02687 0 19.81798 19.82483 0 0 0-.00002-28.0364zM31.21198 128.5545a18.76499 18.74046 0 0 0 0 26.503 18.76499 18.74046 0 0 0 26.53768-.0002l97.30494-97.1775a18.76499 18.74046 0 0 0-.00003-26.5033 18.76499 18.74046 0 0 0-26.53769.0002z"
       stroke-linejoin="round"
       id="path2" />
    <path
       d="M51.40476 73.7815l25.40001-25.4"
       id="path4" />
  </g>
  <rect
     width="7.40833"
     height="2.6458299"
     x="0.52916998"
     y="0.52916318"
     rx="0.79374999"
     ry="0.79374999"
     id="rect8"
     style="fill:none;stroke:#ffffff;stroke-width:1;stroke-linecap:round;stroke-linejoin:round" />
  <rect
     ry="0.79374999"
     rx="0.79374999"
     y="5.2916665"
     x="0.52916998"
     height="2.6458299"
     width="7.40833"
     id="rect10"
     style="fill:none;stroke:#ffffff;stroke-width:1;stroke-linecap:round;stroke-linejoin:round" />
  <rect
     width="2.6458299"
     height="2.6458299"
     x="5.2916698"
     y="0.52916318"
     rx="0.79374999"
     ry="0.79374999"
     id="rect12"
     style="fill:none;stroke:#ffffff;stroke-width:1;stroke-linecap:round;stroke-linejoin:round;stroke-opacity:0.97685188" />
  <rect
     width="2.6458299"
     height="2.6458299"
     x="0.52916998"
     y="5.2916665"
     rx="0.79374999"
     ry="0.79374999"
     id="rect14"
     style="fill:none;stroke:#ffffff;stroke-width:1;stroke-linecap:round;stroke-linejoin:round;stroke-opacity:1" />
</svg>
