<?xml version="1.0" encoding="UTF-8" standalone="no"?>
<svg
   xmlns:dc="http://purl.org/dc/elements/1.1/"
   xmlns:cc="http://creativecommons.org/ns#"
   xmlns:rdf="http://www.w3.org/1999/02/22-rdf-syntax-ns#"
   xmlns:svg="http://www.w3.org/2000/svg"
   xmlns="http://www.w3.org/2000/svg"
   xmlns:sodipodi="http://sodipodi.sourceforge.net/DTD/sodipodi-0.dtd"
   xmlns:inkscape="http://www.inkscape.org/namespaces/inkscape"
   id="svg8"
   version="1.1"
   viewBox="0 0 8.4666665 8.4666669"
   height="32"
   width="32"
   sodipodi:docname="SETTINGS.svg"
   inkscape:version="0.92.2 (5c3e80d, 2017-08-06)">
  <sodipodi:namedview
     pagecolor="#ffffff"
     bordercolor="#666666"
     borderopacity="1"
     objecttolerance="10"
     gridtolerance="10"
     guidetolerance="10"
     inkscape:pageopacity="0"
     inkscape:pageshadow="2"
     inkscape:window-width="1366"
     inkscape:window-height="660"
     id="namedview5478"
     showgrid="false"
     inkscape:pagecheckerboard="true"
     inkscape:zoom="7.375"
     inkscape:cx="-6.440678"
     inkscape:cy="16"
     inkscape:window-x="0"
     inkscape:window-y="23"
     inkscape:window-maximized="1"
     inkscape:current-layer="svg8" />
  <defs
     id="defs2" />
  <metadata
     id="metadata5">
    <rdf:RDF>
      <cc:Work
         rdf:about="">
        <dc:format>image/svg+xml</dc:format>
        <dc:type
           rdf:resource="http://purl.org/dc/dcmitype/StillImage" />
        <dc:title></dc:title>
      </cc:Work>
    </rdf:RDF>
  </metadata>
  <path
     inkscape:connector-curvature="0"
     style="fill:none;stroke:#ffffff;stroke-width:0.52916667;stroke-miterlimit:4;stroke-dasharray:none;stroke-opacity:1"
     d="M 3.4702019,0.66947 A 1.2133179,1.2251203 89.999982 0 1 2.8705338,1.8921 1.2133179,1.2251203 89.999982 0 1 1.5038088,1.7966 3.6399545,3.6753618 89.999982 0 0 0.74314171,3.10444 1.2133181,1.2251205 89.999982 0 1 1.5085812,4.22786 1.2133181,1.2251205 89.999982 0 1 0.74271331,5.3526 3.6399545,3.6753618 89.999982 0 0 1.0493872,6.0481 3.6399545,3.6753618 89.999982 0 0 1.501935,6.66087 1.2133181,1.2251205 89.999982 0 1 2.8706905,6.56437 1.2133181,1.2251205 89.999982 0 1 3.470789,7.78097 3.6399545,3.6753618 89.999982 0 0 4.9943257,7.78397 1.2133181,1.2251205 89.999982 0 1 5.594154,6.564 1.2133181,1.2251205 89.999982 0 1 6.9608788,6.6595 3.6399545,3.6753618 89.999982 0 0 7.7234794,5.35261 1.213318,1.2251204 89.999982 0 1 6.9561065,4.22824 1.213318,1.2251204 89.999982 0 1 7.7230106,3.1029 3.6399545,3.6753618 89.999982 0 0 7.4153005,2.408 3.6399545,3.6753618 89.999982 0 0 6.9629719,1.79442 1.213318,1.2251204 89.999982 0 1 5.5939973,1.89172 1.213318,1.2251204 89.999982 0 1 4.9943368,0.67351 3.6399545,3.6753618 89.999982 0 0 3.4702019,0.66951 Z"
     id="path18" />
  <ellipse
     style="fill:none;fill-opacity:1;stroke:#ffffff;stroke-width:0.52935058;stroke-miterlimit:4;stroke-dasharray:none;stroke-opacity:1"
     id="path4687"
     cx="1.4430952"
     cy="5.7521849"
     transform="matrix(0.87509688,-0.48394777,0.51622578,0.85645254,0,0)"
     rx="1.2531922"
     ry="1.2265168" />
</svg>
